<?xml version="1.0" encoding="utf-8"?>
<!-- Generator: Adobe Illustrator 21.0.2, SVG Export Plug-In . SVG Version: 6.00 Build 0)  -->
<svg version="1.1" id="Layer_1" xmlns="http://www.w3.org/2000/svg" xmlns:xlink="http://www.w3.org/1999/xlink" x="0px" y="0px"
	 viewBox="0 0 640.6 480.6" style="enable-background:new 0 0 640.6 480.6;" xml:space="preserve">
<style type="text/css">
	.st0{fill:#F5F5F5;}
	.st1{fill:none;stroke:#EFF9F0;stroke-miterlimit:10;}
</style>
<g>
	<g id="XMLID_1_">
		<g>
			<path class="st0" d="M637.6,195.8c0.6,1.3,4.9,11.1,0.6,7c-4.7-4.5-8.8-9.7-13.3-14.5c-4.7-4.9-9.5-9.8-14.3-14.5
				c-9.6-9.4-19.5-18.8-28.9-28.3c-9.7-9.8-19.3-19.8-28.7-29.9c-4.5-4.8-9-9.5-13.6-14.3c-7-7.3-14-14.6-21-21.9
				c-7-7.3-14.1-14.5-21.2-21.7c-4.5-4.6-9-9.1-13.5-13.7c-0.3-0.3-0.6-0.6-1-0.7c-0.4-0.1-0.9,0-1.3,0.1
				c-12.5,3.7-24.9,7.7-37.4,11.7c-10,3.2-20,6.4-30,9.7c-9.9,3.2-19.9,6.5-29.8,9.7c-11.6,3.8-23.2,7.6-34.8,11.4
				c-19.8,6.5-39.6,13.1-59.4,19.7c-19.8,6.6-39.6,13.2-59.3,19.9c-19.8,6.7-39.5,13.4-59.3,20.1c-14.5,4.9-29,9.9-43.4,14.9
				c-7.3,2.5-14.4,5.4-21.7,8c-6.7,2.4-13.4,4.9-20.1,7.4c-9.6,3.7-19.2,7.5-28.8,11.4C48,191.3,38.4,195,28.9,199
				c-4.8,2-9.7,3.9-14.5,5.9c-2.4,1-4.8,2-7.2,3c-1.2,0.5-2.4,1-3.6,1.5c-1.1,0.5-2.3,1.2-3.5,1.4c0.4-0.1,0.7-0.7,1-1
				c0.5-0.6,1.2-1.1,1.8-1.5c1.4-1.1,2.9-2.1,4.4-3c0.7-0.4,1.4-0.9,2.2-1.3c8.7-5.1,17.9-9.6,26.9-14.1c5.2-3.2,11.3-5.6,16.8-8.3
				c36.8-17.5,75-32.1,112.6-48.1c37.9-15.8,75.8-31.8,113.6-47.7c28.9-12.1,57.9-24.3,86.8-36.5c1.4-0.6,2.9-1.2,4.3-1.8
				c0.4-0.2,0.9-0.4,1.3-0.5c28.3-11.9,56.9-23.3,85-35.8c4.6-2.1,9.2-4.1,13.8-6.3c3.4-1.6,7.6-4.8,11.6-4.2
				c3.3,0.5,4.7,3.4,6.3,5.8c16,24.4,34.7,47.1,53.3,69.8c9.3,11.4,18.8,22.8,28.4,34c5.6,6.6,11.4,13.2,17.2,19.7
				c15.7,17.7,32.5,35.4,44.7,55.6C634,188.8,635.9,192.3,637.6,195.8z"/>
			<path class="st0" d="M598.3,297.5c22.2,4.7,16.4,27.9,11.1,42.7c-5.7,16.2-14,31.3-22.9,46.2c-8.9,14.9-18.4,29.5-26.6,44.8
				c-4,7.5-7.4,15.1-10.8,22.8c-3.8,8.6-5.9,17.5-7.9,26.6c0.2-8.9,1.3-17.8,3.4-26.5c1.4-5.7,4-11.1,6-16.7
				c2-5.9,4.6-11.5,7.4-17.1c5.5-10.9,11.8-21.3,17.7-32c9.3-17.1,17.3-35.6,16.7-54.9c-0.2-5.4-1.2-11-3.8-15.9
				c-3.1-5.7-7-8.3-13.5-9.4c-6.6-1.1-12.9-1.7-19.6-1.1c-12.7,1.2-25.9,1.2-37-5.6c-2.1-1.3-4.1-2.9-5.3-5
				c15.3,9.5,36,7.9,53.2,4.9C576.7,299.4,587.6,295.2,598.3,297.5z"/>
			<path class="st0" d="M589.5,192.4c13.5,21.1,16.9,49.7,5.2,72c-1.3,2.5-2.7,5-4.4,7.2c-9.4,12.5-27.3,19.1-43.1,18.3
				c-18.1-0.9-46.4-15.6-36.2-35.8c1.3-2.6,4.1-7.2,7.4-7.6c1.2-0.1,2.3,0.3,3.2,1.1c2.2,1.8,3.4,4.6,5.3,6.6
				c3.7,4,7.7,7.9,12.5,10.7c4.5,2.6,9.8,4.1,15,3.5c0.6-0.1,1.1-0.2,1.7-0.3c8.1-1.6,16-7.4,20.6-13.5c8.4-11,11-25.1,9.9-38.4
				c-0.5-5.9-1.8-11.8-4-17.4c-2.7-6.9-6.9-13.5-12.6-18.6c-5.7-5.1-12.6-8.8-20.3-10.3c-6.4-1.3-13.2-1-19.5,0.8
				c4.6-2.5,9.9-3.7,15.2-3.9c8.4-0.3,16.5,1.9,23.7,5.8c1.3,0.7,2.6,1.5,3.9,2.4c3.2,2.2,6.2,4.7,8.8,7.5
				C584.8,185.6,587.3,188.9,589.5,192.4z"/>
			<path class="st0" d="M510.8,319.6c0,7.6-1.1,15-1.7,22.5c-1.4,18.6-6.3,36.7-8.3,55.1c-1,8.8-1.6,17.8-0.2,26.6
				c1.3,8.4,2.8,19.3,7.1,26.8c-14.5-24.9-15.1-53.3-15.1-81.1c-0.3-5.5-0.5-11.1-1.6-16.5c-2.3-11.6-8.6-22.7-18.6-29.7
				c-10.9-7.6-24.5-8.7-37.4-10.3c-15.1-1.9-29.2-7.3-42.9-13.1c-7.1-3-14.7-5-22.5-4.6s-15.5,3.4-20.4,9c-4,4.6-5.9,10.5-7.1,16.3
				c-3.4,16-3.2,33.2,1.1,49c2.6,9.8,5.5,19.5,8.6,29.1c2.7,8.6,7.4,16,6.9,25.3c-0.3,5.3-1.7,10.4-3.4,15.5
				c0.6-6.2,0.1-12.5-1.7-18.5c-9.6-33.3-22.5-66.1-24.8-100.9c-0.6-9.2-1.3-26.9,7-33.6c7.9-6.4,24.6-2.6,33.4-0.2
				c10.8,2.9,20.6,8.2,31.3,11c11.8,3.1,22.5,5.5,35,4.8c12.7-0.7,25.1-3.5,37.2-6.9c5.3-1.5,10.8-3.1,16.3-2.5
				c3.6,0.4,7.1,1.8,10.2,3.7c2.6,1.6,4.9,3.6,6.7,5.9c1.2,1.6,2.2,3.3,3,5.1C510.6,311.3,510.8,315.5,510.8,319.6z"/>
			<path class="st0" d="M498.6,167c2.5,12.9,3.4,26.9,2.6,40.4c-1,17.9-6.5,50.2-32.1,65.8c-10.1,6.1-20.9,8.8-31.4,8.8
				c-23.1,0-45.4-12.8-57.7-30.3c-7.1-10.1-11.7-22.4-13.5-35.6c-1.5-11.4-1-23.4,1.6-35.4c2.1-9.7,4.7-20,10.3-29.6
				c4.8-8.3,11.2-15.8,18.6-21.7c13.3-10.6,28.7-15.6,44.5-14.4c2.9,0.2,5.8,0.7,8.5,1.3C475.1,121.7,493.7,141.2,498.6,167z
				 M474,245.2c17.7-20.6,23-47.3,19.8-73.2c-1.3-10.7-3.6-21.4-10-30.5c-8.3-11.9-21.2-20.7-36-23.9c-2.7-0.6-5.4-1-8.1-1.2
				c-1.5-0.1-3-0.2-4.4-0.2c-22.9,0-42.6,15.3-50.9,34.8c-5.8,13.6-6.9,28.1-5.7,42.6c2.2,27.2,14.2,56.2,44.3,65.1
				C441.7,264.3,461.6,259.7,474,245.2z"/>
			<path class="st0" d="M357.1,163.1c0.6,2,0.4,4.1,1.1,6.1c-1.5-2.3-3-4.9-4.3-7.1c-0.9-1.5-2.1-2.6-3.2-3.9
				c-2.2-2.6-5-4.9-8.1-6.6c-2.5-1.4-5.5-2.5-8.4-3.2c-9.2-2.2-21.4-0.6-29.4,4.3c-17.4,10.7-26.6,29.9-29.3,48.7
				c-1.4,9.4-2.1,18.7,2,27.6c3.6,7.9,10,14.6,18.3,18.2c8.7,3.9,18.8,4.7,28.2,2.9c7.8-1.5,14.6-6.8,18.4-13.2
				c1.2-2.1,2.8-6,5.9-5.7c4.4,0.4,6.3,9.4,6.9,12.4c0.6,3.2,1.3,6.4,1.1,9.6c-0.3,6-3.3,9.8-8.8,12.6c-9.4,4.8-20,7.9-30.8,8.2
				c-9.9,0.2-20.6-3.2-29.2-7.9c-14.9-8.1-25.1-22.6-27.5-38.6c-3-19.3,4.3-39.9,15.2-56.2c9.5-14.3,24.3-27,42.8-28.8
				c8.3-0.8,16.8,0.5,24.3,4c4.7,2.2,8.7,5.5,11.5,9.7C355.2,158.4,356.3,160.7,357.1,163.1z"/>
			<path class="st0" d="M332.4,437.6c0.3,3.1-0.3,6.7,0.3,9.8c-3.6-17-12.8-32.5-23.3-46.7c-10.5-14.3-22.3-27.6-32.3-42.2
				c-7-10.3-13.1-21.2-16.8-32.9c-3.2-10.3-7-23.3,0.5-32.8c6.9-8.7,19.1-7.9,29-5.2c4.4,1.2,8.6,2.8,13,4.1
				c6.4,1.8,13.1,3,19.8,2.7c-3.3,0.1-6.5,0.4-9.8,0.6c-2.5,0.1-4.9,0.3-7.4,0.2c-2.4-0.1-4.7-0.5-7.1-1c-6.2-1.3-14.2-4.9-19.8-0.1
				c-1.1,1-1.9,2.3-2.5,3.6c-2.2,4.7-2.5,10.1-1.6,15.2c0.9,5.1,2.9,10,4.9,14.7c2.4,5.6,5.2,11,8.2,16.3c1.5,2.6,3,5.2,4.6,7.7
				c4.6,7.5,9.2,15.3,14.3,22.4c7.9,10.9,14.7,22.6,19.6,35c2.3,5.8,3.8,12.4,4.9,18.6C331.7,430.9,332.1,434.3,332.4,437.6z"/>
			<path class="st0" d="M252.5,245.5c2.6,5,4.9,9.9,4.1,15.6c-0.8,5.4-3.7,10.3-7.1,14.6c-6.2,7.8-15.5,12.6-25.3,15.3
				c-6.2,1.7-12.7,2.6-19.2,3.1c-19.8,1.4-48.8,5.7-64.5-12.2c-14.9-17-5.9-47.4,2.4-66.3c8.4-19.2,23.7-41,47.4-44
				c6-0.8,12.1-0.7,18-0.1c7.5,0.8,15,2.6,21.8,5.8c3.3,1.5,6.4,3.4,9.1,5.6c1.9,1.5,3.5,3.8,4.9,5.8c3.1,4.6,4.5,9.6,5.9,14.8
				c-7.1-17-24.2-25.1-42.6-25.9c-10.8-0.5-21.7,2.5-30.4,8.6c-12.4,8.6-19.9,22.7-23.3,36.6c-0.7,3-1.3,6-1.8,9
				c-1.9,11.2-2,22.1,4.5,32.1c3.5,5.4,10.5,8.5,16.8,10.2c10.6,2.9,22.9,1.5,33.5-1.1c7.6-1.9,14.9-5.1,20.9-9.9
				c6.2-5,10.5-11.4,14.5-18c0.8-1.2,1.5-2.5,2.7-3.4c1.1-0.9,2.8-1.4,4.2-0.8c1.4,0.5,2.1,1.9,2.8,3.1
				C252,244.5,252.3,245,252.5,245.5z"/>
			<path class="st0" d="M246.4,299.7c-2.4,2.6-4.7,5.1-7.5,7.3c-5.4,4.3-11.4,5.1-18.3,5.9c-17.1,2-34.5,1.4-51.7,2.3
				c-7.3,0.4-15.2,1.2-20.4,6c-2.2,2-3.7,4.5-4.8,7.1c-3.9,9.2-3.5,19.6-0.7,29.1c2.8,9.5,7.7,18.4,12.6,27.1
				c2.2,4,4.4,7.9,6.6,11.9c0.8,0,4.6,7.8,5.2,8.8c1.8,2.9,3.6,5.8,5.5,8.7c3.9,5.9,7.9,11.6,12.1,17.3c4.3,5.9,8.5,11.8,12.9,17.6
				c4.3,5.7,9,11.2,13.6,16.7c1.6,2,3.1,4,4.6,6.1c1.3,1.9,2.8,3.7,4.1,5.7c-1-0.8-2.1-1.4-3-2.3c-1-0.9-2-1.9-2.9-2.9
				c-2.6-2.6-5.1-5.2-7.6-7.9c-0.8-0.8-1.6-1.7-2.4-2.5c-8.4-8.5-16.3-17.3-24.8-25.6c-8.6-8.4-17.2-16.7-25.4-25.4
				c-16.3-17.2-30.9-36.1-38.8-58.1c-3.6-10.1-6-21.6-2.6-32.1c3.9-11.9,13-12.5,25-12.7c30.5-0.3,61,4.8,91.1-0.9
				c0.1,0,0.2,0,0.4-0.1C235.2,305.7,241.2,303.2,246.4,299.7z"/>
		</g>
		<g>
			<path class="st1" d="M437.7,282.1c-23.1,0-45.4-12.8-57.7-30.3c-7.1-10.1-11.7-22.4-13.5-35.6c-1.5-11.4-1-23.4,1.6-35.4
				c2.1-9.7,4.7-20,10.3-29.6c4.8-8.3,11.2-15.8,18.6-21.7c13.3-10.6,28.7-15.6,44.5-14.4c2.9,0.2,5.8,0.7,8.5,1.3
				c25.1,5.5,43.7,24.9,48.6,50.8c2.5,12.9,3.4,26.9,2.6,40.4c-1,17.9-6.5,50.2-32.1,65.8C459,279.4,448.2,282.1,437.7,282.1z"/>
			<path class="st1" d="M435.3,116.2c-22.9,0-42.6,15.3-50.9,34.8c-5.8,13.6-6.9,28.1-5.7,42.6c2.2,27.2,14.2,56.2,44.3,65.1
				c18.7,5.5,38.6,0.9,51-13.6c17.7-20.6,23-47.3,19.8-73.2c-1.3-10.7-3.6-21.4-10-30.5c-8.3-11.9-21.2-20.7-36-23.9
				c-2.7-0.6-5.4-1-8.1-1.2C438.2,116.3,436.7,116.2,435.3,116.2z"/>
			<path class="st1" d="M631.9,185.4c-12.1-20.2-29-37.9-44.7-55.6c-5.8-6.5-11.5-13.1-17.2-19.7c-9.6-11.2-19-22.6-28.4-34
				c-18.6-22.7-37.2-45.4-53.3-69.8c-1.5-2.4-3-5.3-6.3-5.8c-4-0.6-8.2,2.7-11.6,4.2c-4.6,2.1-9.2,4.2-13.8,6.3
				c-28,12.5-56.6,23.9-85,35.8c-0.4,0.2-0.9,0.4-1.3,0.5c-1.4,0.6-2.9,1.2-4.3,1.8c-28.9,12.2-57.9,24.3-86.8,36.5
				c-37.9,15.9-75.7,31.8-113.6,47.7c-37.6,16-75.8,30.7-112.6,48.1c-5.5,2.6-11.6,5-16.8,8.3c-9,4.6-18.2,9.1-26.9,14.1
				c-0.7,0.4-1.4,0.9-2.2,1.3c-1.5,1-3,2-4.4,3c-0.6,0.5-1.3,1-1.8,1.5c-0.2,0.3-0.6,0.9-1,1c1.2-0.3,2.4-0.9,3.5-1.4
				c1.2-0.5,2.4-1,3.6-1.5c2.4-1,4.8-2,7.2-3c4.8-2,9.7-3.9,14.5-5.9c9.5-3.9,19-7.7,28.5-11.5c9.6-3.9,19.2-7.7,28.8-11.4
				c6.7-2.6,13.3-5,20.1-7.4c7.3-2.6,14.3-5.5,21.7-8c14.5-5,28.9-10,43.4-14.9c19.7-6.8,39.5-13.5,59.3-20.1
				c19.8-6.7,39.6-13.3,59.3-19.9c19.8-6.6,39.6-13.2,59.4-19.7c11.6-3.8,23.2-7.6,34.8-11.4c9.9-3.2,19.9-6.5,29.8-9.7
				c10-3.2,20-6.5,30-9.7c12.4-4,24.8-8.1,37.4-11.7c0.4-0.1,0.9-0.3,1.3-0.1c0.4,0.1,0.7,0.4,1,0.7c4.5,4.6,9,9.1,13.5,13.7
				c7.1,7.2,14.1,14.5,21.2,21.7c7,7.3,14,14.6,21,21.9c4.5,4.8,9.1,9.5,13.6,14.3c9.5,10,19,20.1,28.7,29.9
				c9.4,9.5,19.3,18.9,28.9,28.3c4.9,4.8,9.7,9.6,14.3,14.5c4.5,4.7,8.6,10,13.3,14.5c4.3,4.1,0.1-5.7-0.6-7
				C635.9,192.3,634,188.8,631.9,185.4z"/>
			<path class="st1" d="M556.1,268.1c-0.6,0.1-1.1,0.2-1.7,0.3c-5.2,0.6-10.5-1-15-3.5c-4.8-2.8-8.8-6.7-12.5-10.7
				c-1.9-2.1-3.1-4.8-5.3-6.6c-0.9-0.7-2-1.2-3.2-1.1c-3.4,0.4-6.1,5.1-7.4,7.6c-10.2,20.2,18.1,34.9,36.2,35.8
				c15.8,0.8,33.7-5.8,43.1-18.3c1.7-2.3,3.1-4.7,4.4-7.2c11.7-22.2,8.3-50.8-5.2-72c-2.2-3.5-4.8-6.8-7.7-9.8
				c-2.6-2.8-5.6-5.3-8.8-7.5c-1.3-0.9-2.6-1.6-3.9-2.4c-7.2-4-15.3-6.1-23.7-5.8c-5.3,0.2-10.6,1.4-15.2,3.9
				c6.3-1.8,13-2.1,19.5-0.8c7.7,1.5,14.6,5.2,20.3,10.3c5.7,5.1,9.9,11.7,12.6,18.6c2.2,5.6,3.5,11.4,4,17.4
				c1.1,13.3-1.4,27.4-9.9,38.4C572.1,260.7,564.2,266.5,556.1,268.1z"/>
			<path class="st1" d="M304.8,152.6c8-4.9,20.2-6.5,29.4-4.3c2.9,0.7,5.8,1.8,8.4,3.2c3.1,1.7,5.9,4,8.1,6.6
				c1.1,1.3,2.3,2.4,3.2,3.9c1.3,2.3,2.8,4.9,4.3,7.1c-0.8-2-0.5-4.1-1.1-6.1c-0.8-2.4-1.9-4.7-3.3-6.8c-2.8-4.2-6.8-7.5-11.5-9.7
				c-7.4-3.5-16-4.8-24.3-4c-18.6,1.8-33.3,14.4-42.8,28.8c-10.8,16.3-18.1,36.9-15.2,56.2c2.4,16,12.7,30.5,27.5,38.6
				c8.6,4.7,19.2,8.1,29.2,7.9c10.8-0.2,21.3-3.3,30.8-8.2c5.5-2.8,8.5-6.6,8.8-12.6c0.1-3.2-0.5-6.4-1.1-9.6
				c-0.6-3-2.5-12-6.9-12.4c-3.1-0.3-4.7,3.6-5.9,5.7c-3.8,6.5-10.6,11.8-18.4,13.2c-9.4,1.8-19.4,1-28.2-2.9
				c-8.3-3.7-14.8-10.3-18.3-18.2c-4.1-8.9-3.4-18.2-2-27.6C278.3,182.5,287.4,163.3,304.8,152.6z"/>
			<path class="st1" d="M252.5,245.5c-0.3-0.5-0.5-1-0.7-1.4c-0.6-1.3-1.4-2.6-2.8-3.1c-1.4-0.6-3-0.1-4.2,0.8
				c-1.2,0.9-1.9,2.2-2.7,3.4c-4,6.5-8.4,13-14.5,18c-6,4.8-13.3,8-20.9,9.9c-10.6,2.7-22.9,4.1-33.5,1.1
				c-6.3-1.8-13.2-4.8-16.8-10.2c-6.6-10-6.5-20.9-4.5-32.1c0.5-3,1.1-6.1,1.8-9c3.4-13.9,10.9-28,23.3-36.6
				c8.7-6,19.6-9.1,30.4-8.6c18.4,0.8,35.5,8.9,42.6,25.9c-1.4-5.2-2.7-10.3-5.9-14.8c-1.3-2-3-4.2-4.9-5.8
				c-2.8-2.3-5.9-4.1-9.1-5.6c-6.8-3.2-14.3-5-21.8-5.8c-6-0.6-12.1-0.7-18,0.1c-23.7,3-39,24.9-47.4,44
				c-8.3,18.9-17.3,49.3-2.4,66.3c15.7,17.9,44.7,13.6,64.5,12.2c6.5-0.5,12.9-1.4,19.2-3.1c9.8-2.7,19.1-7.5,25.3-15.3
				c3.4-4.3,6.3-9.3,7.1-14.6C257.5,255.4,255.1,250.5,252.5,245.5z"/>
			<path class="st1" d="M506.2,302.3c-1.8-2.3-4.1-4.3-6.7-5.9c-3.1-1.9-6.5-3.3-10.2-3.7c-5.5-0.6-11,1-16.3,2.5
				c-12.1,3.4-24.6,6.2-37.2,6.9c-12.5,0.7-23.1-1.7-35-4.8c-10.7-2.9-20.5-8.1-31.3-11c-8.8-2.4-25.5-6.2-33.4,0.2
				c-8.3,6.8-7.6,24.4-7,33.6c2.3,34.8,15.2,67.6,24.8,100.9c1.7,6,2.3,12.3,1.7,18.5c1.7-5,3.1-10.2,3.4-15.5
				c0.5-9.3-4.2-16.7-6.9-25.3c-3-9.7-5.9-19.4-8.6-29.1c-4.3-15.8-4.6-32.9-1.1-49c1.3-5.8,3.1-11.7,7.1-16.3
				c4.9-5.6,12.7-8.6,20.4-9s15.4,1.6,22.5,4.6c13.8,5.8,27.9,11.2,42.9,13.1c13,1.6,26.5,2.6,37.4,10.3c10,7,16.3,18.1,18.6,29.7
				c1.1,5.4,1.3,11,1.6,16.5c0,27.8,0.6,56.2,15.1,81.1c-4.4-7.5-5.8-18.4-7.1-26.8c-1.4-8.8-0.8-17.8,0.2-26.6
				c2-18.5,6.9-36.6,8.3-55.1c0.6-7.5,1.7-14.9,1.7-22.5c0-4.1-0.2-8.3-1.7-12.2C508.4,305.6,507.4,303.9,506.2,302.3z"/>
			<path class="st1" d="M287.6,343.8c-3-5.3-5.8-10.7-8.2-16.3c-2.1-4.8-4-9.6-4.9-14.7c-0.9-5.1-0.6-10.5,1.6-15.2
				c0.6-1.3,1.4-2.6,2.5-3.6c5.6-4.8,13.6-1.2,19.8,0.1c2.3,0.5,4.7,0.9,7.1,1c2.4,0.1,4.9,0,7.4-0.2c3.3-0.2,6.5-0.4,9.8-0.6
				c-6.7,0.3-13.4-0.9-19.8-2.7c-4.4-1.3-8.6-2.9-13-4.1c-9.9-2.7-22.1-3.5-29,5.2c-7.4,9.4-3.7,22.5-0.5,32.8
				c3.7,11.7,9.8,22.7,16.8,32.9c10,14.6,21.8,27.9,32.3,42.2c10.5,14.3,19.6,29.8,23.3,46.7c-0.7-3-0.1-6.7-0.3-9.8
				c-0.3-3.4-0.7-6.8-1.3-10.1c-1.1-6.2-2.6-12.7-4.9-18.6c-4.9-12.4-11.7-24.1-19.6-35c-5.1-7.1-9.8-14.9-14.3-22.4
				C290.7,349,289.1,346.5,287.6,343.8z"/>
			<path class="st1" d="M228.9,307c-0.1,0-0.2,0-0.4,0.1c-30.1,5.7-60.7,0.6-91.1,0.9c-12,0.1-21.1,0.7-25,12.7
				c-3.4,10.5-1,22,2.6,32.1c7.9,22,22.6,40.9,38.8,58.1c8.2,8.7,16.8,17,25.4,25.4c8.5,8.4,16.4,17.2,24.8,25.6
				c0.8,0.8,1.6,1.7,2.4,2.5c2.5,2.6,5,5.3,7.6,7.9c1,1,1.9,1.9,2.9,2.9c0.9,0.9,2,1.5,3,2.3c-1.3-2-2.7-3.8-4.1-5.7
				c-1.4-2.1-3-4.1-4.6-6.1c-4.5-5.6-9.2-11-13.6-16.7c-4.4-5.8-8.6-11.7-12.9-17.6c-4.1-5.7-8.2-11.5-12.1-17.3
				c-1.9-2.9-3.7-5.8-5.5-8.7c-0.6-1-4.4-8.8-5.2-8.8c-2.2-4-4.4-7.9-6.6-11.9c-4.9-8.8-9.8-17.6-12.6-27.1
				c-2.8-9.5-3.2-19.9,0.7-29.1c1.1-2.6,2.6-5.1,4.8-7.1c5.2-4.8,13.1-5.6,20.4-6c17.2-1,34.6-0.3,51.7-2.3
				c6.9-0.8,12.8-1.6,18.3-5.9c2.8-2.2,5.1-4.8,7.5-7.3C241.2,303.2,235.2,305.7,228.9,307z"/>
			<path class="st1" d="M598.3,297.5c-10.7-2.3-21.6,2-32,3.8c-17.2,3-37.9,4.5-53.2-4.9c1.1,2.1,3.1,3.7,5.3,5
				c11.2,6.9,24.3,6.8,37,5.6c6.7-0.6,12.9,0,19.6,1.1c6.5,1.1,10.5,3.7,13.5,9.4c2.6,4.9,3.7,10.5,3.8,15.9
				c0.6,19.2-7.4,37.7-16.7,54.9c-5.8,10.7-12.2,21.1-17.7,32c-2.8,5.6-5.4,11.3-7.4,17.1c-1.9,5.5-4.6,11-6,16.7
				c-2.1,8.7-3.2,17.6-3.4,26.5c2-9.1,4.1-18,7.9-26.6c3.4-7.7,6.8-15.3,10.8-22.8c8.2-15.3,17.7-29.9,26.6-44.8
				c8.9-14.8,17.2-30,22.9-46.2C614.7,325.3,620.5,302.2,598.3,297.5z"/>
		</g>
	</g>
</g>
</svg>
